# xmcd
#
# Track frame offsets:
#	150
#	19398
#	39911
#	58080
#	72025
#	84258
#	99999
#	115086
#	128598
#	143830
#	159239
#	184060
#	205423
#	222173
#	238501
#
# Disc length: 3405 seconds
#
# Revision: 1
# Processed by: cddbd v1.5.2PL0 Copyright (c) Steve Scherf et al.
# Submitted via: audiograbber 1.83.01
#
DISCID=c30d4b0f
DTITLE=Georg Danzer - Jö schau... - Das Beste
DYEAR=2014
DGENRE=Austro Pop
TTITLE0=Ollas leiwaund (Live)
TTITLE1=Weiße Pferde (Live)
TTITLE2=War das etwa Haschisch (Live)
TTITLE3=Ane so wie di (Live)
TTITLE4=Kinder
TTITLE5=Ich liebe dich mehr...
TTITLE6=Atemzüge
TTITLE7=Jo, da Foi wiad imma gloara
TTITLE8=Jö schau
TTITLE9=Hupf in Gatsch
TTITLE10=Ballade vom versteckten Tschurifetzen (Live)
TTITLE11=Eigentlich bin ich ein Schwein
TTITLE12=Schau Schazi (mit Wolfgang Ambros)
TTITLE13=Loch amoi
TTITLE14=Lass mi anoi no d'Sunn aufgeh' segn (Live)
EXTD=
EXTT0=
EXTT1=
EXTT2=
EXTT3=
EXTT4=
EXTT5=
EXTT6=
EXTT7=
EXTT8=
EXTT9=
EXTT10=
EXTT11=
EXTT12=
EXTT13=
EXTT14=
PLAYORDER=
